<svg width="29" height="31" viewBox="0 0 29 31" fill="none" xmlns="http://www.w3.org/2000/svg">
<path d="M15 31C23.0082 31 29 23.5611 29 15C29 6.44024 23.0082 0 15 0C6.99177 0 0 6.43894 0 15C0 23.5611 6.99177 31 15 31Z" fill="#EB6431"/>
<path d="M19.9998 9.99981C17.3104 13.2031 15.4676 15.9998 13.9998 15.9998H12.9998C11.4748 15.9998 9.50477 12.9825 6.99975 9.99981C6.96666 9.96142 7.00699 10.0492 6.99975 9.99981C6.97897 10.0455 6.99252 9.9504 6.99975 9.99981C6.95613 10.0267 7.0222 9.95483 6.99975 9.99981C6.94795 10.0007 7.04338 9.97289 6.99975 9.99981H19.9998C20.0991 9.99981 19.9526 9.90356 19.9998 9.99981C20.0631 9.91193 20.0482 10.0949 19.9998 9.99981Z" fill="#C9F2F8"/>
<path d="M13 9.99956H7C6.95218 10.0004 7.04027 9.97264 7 9.99956C6.95973 10.0265 7.02072 9.95458 7 9.99956C6.9807 10.0453 6.99332 9.95004 7 9.99956C6.96934 9.96112 7.00668 10.0491 7 9.99956C9.31301 12.9816 11.5928 15.9996 13 15.9996V9.99956Z" fill="white"/>
<path d="M14 24H13V18C13 17.6844 13.7239 17 14 17H12C12.2761 17 13 17.6837 13 18V24H12C10.5821 24.057 10 23.6464 10 24C10 24.3942 11.3437 25 13 25C14.6563 25 16 24.3942 16 24C16 23.6464 15.4179 24.057 14 24Z" fill="#C9F2F8"/>
<path d="M12 17C12.2762 17 13 17.6837 13 18V24H12C10.5819 24.057 10 23.6457 10 24C10 24.3942 11.3436 25 13 25V17H12Z" fill="white"/>
<path d="M10.6636 15.2178C11.6423 16.2557 12.5093 16.9087 13.2258 16.9087H13.6717C14.3816 16.9087 15.2305 16.277 16.2249 15.2178H10.6636Z" fill="#12B2A0"/>
<path d="M9.44092 13.8086C9.86504 14.3285 10.2735 14.8032 10.6644 15.2172H16.2251C16.6472 14.7629 17.0544 14.2931 17.4461 13.8086H9.44092Z" fill="#FACB1B"/>
<path d="M18.7757 12.1172H8.11035C8.54526 12.6881 8.98837 13.2518 9.43952 13.8081H17.4447C17.867 13.2914 18.3105 12.7243 18.7757 12.1172Z" fill="#F37A10"/>
<path d="M13.4452 15.2178H10.6636C11.6423 16.255 12.5093 16.9087 13.2258 16.9087H13.4452V15.2178Z" fill="#47C4B7"/>
<path d="M13.4461 13.8086H9.44043C9.86516 14.3285 10.2736 14.8032 10.6645 15.2172H13.4461V13.8086Z" fill="#FBE158"/>
<path d="M13.4445 12.1172H8.11035C8.54526 12.6881 8.98837 13.2518 9.43952 13.8081H13.4451L13.4445 12.1172Z" fill="#EB6431"/>
<path d="M22.9357 10.4267C22.936 11.0472 22.7765 11.6557 22.4748 12.1857C22.1732 12.7158 21.7409 13.1468 21.2253 13.4318C20.7097 13.7167 20.1308 13.8444 19.5518 13.8011C18.9729 13.7577 18.4162 13.5449 17.9429 13.1859C18.5409 12.4295 19.1296 11.6647 19.7089 10.8917C19.741 10.8503 19.7617 10.8002 19.7687 10.747C19.7758 10.6937 19.7688 10.6394 19.7487 10.5901C19.7273 10.5414 19.6934 10.5002 19.651 10.4712C19.6085 10.4423 19.5592 10.4269 19.5089 10.4267H16.6089C16.6088 9.98259 16.6906 9.5428 16.8495 9.13246C17.0085 8.72212 17.2415 8.34928 17.5353 8.03524C17.829 7.72119 18.1778 7.47209 18.5616 7.30217C18.9455 7.13225 19.3569 7.04484 19.7723 7.04492C20.1878 7.04484 20.5991 7.13225 20.983 7.30217C21.3668 7.47209 21.7156 7.72119 22.0094 8.03524C22.3031 8.34928 22.5361 8.72212 22.6951 9.13246C22.854 9.5428 22.9358 9.98259 22.9357 10.4267Z" fill="#FCF6C2"/>
<path d="M19.772 10.4271L19.9351 8.6981C20.3599 7.04466 22.8992 9.53386 21.37 10.1061L19.772 10.4271ZM19.772 10.4271L21.3972 10.4058C22.9819 10.6706 20.955 13.6481 20.2505 12.0889L19.772 10.4271ZM19.7249 10.8669L19.5853 12.1548C19.4083 12.8084 18.905 12.8026 18.4616 12.5268C18.5647 12.3946 18.6694 12.2584 18.7757 12.118C19.088 11.7103 19.3991 11.3017 19.7092 10.8921C19.714 10.8837 19.7219 10.876 19.7249 10.8669ZM19.772 10.4271L18.1583 10.2159C16.6213 9.72762 19.0017 7.06662 19.505 8.71231L19.772 10.4271Z" fill="#FACB1B"/>
</svg>
