<svg width="34" height="34" viewBox="0 0 34 34" fill="none" xmlns="http://www.w3.org/2000/svg">
<g clip-path="url(#clip0_50_1306)">
<path d="M23.5874 3.20853C22.9345 2.37872 20.1614 2.46691 20.7798 4.20781C20.8669 4.46334 21.9761 2.60875 22.748 4.2875C23.0115 4.85859 22.5664 6.38222 18.1432 4.46547C16.0458 3.5565 14.111 2.29956 12.0635 1.27797C9.77014 0.131531 7.20792 -0.697219 4.75302 0.421594C3.78136 0.862531 2.67477 1.87137 2.42667 2.90359C1.00027 8.81747 5.00589 8.75266 6.18792 8.81959C7.0273 8.86953 7.85817 8.81534 8.69808 8.77709C10.2313 8.70484 11.5615 9.14259 13.0033 9.58353C15.9794 10.4968 27.507 8.17625 23.589 3.20853" fill="#704C25"/>
<path d="M23.5874 3.20892C23.3983 2.9672 23.028 2.8073 22.6163 2.7393C22.6992 2.80942 22.7932 2.86892 22.8644 2.9502C26.3579 7.0148 17.3277 8.52939 15.2011 8.40561C11.9212 8.21383 3.91364 7.56092 4.14261 2.78923C4.20902 1.38727 5.04202 0.489984 6.18474 -0.00195312C5.70555 0.0809219 5.22636 0.205766 4.75302 0.421984C3.78136 0.862922 2.67477 1.87177 2.42667 2.90398C1.00027 8.81786 5.00589 8.75305 6.18792 8.81998C7.0273 8.86992 7.85817 8.81573 8.69808 8.77748C10.2313 8.70523 11.5615 9.14298 13.0033 9.58392C15.9794 10.4971 27.507 8.17664 23.589 3.20892" fill="#5C3C1D"/>
<path d="M14.7357 17.2009C14.9774 17.1222 15.7265 17.527 16.0054 17.4952C16.1589 17.4776 17.3096 17.6912 16.0054 16.422C12.9177 13.404 11.3267 11.1218 10.8916 9.39254C10.397 8.26948 8.5275 9.33517 7.8969 8.33376C9.06353 7.08851 9.77806 2.18879 7.4719 2.7652C2.50631 1.9221 4.60847 6.6922 5.86753 8.07185C-0.741221 9.93229 7.87565 19.0512 11.9594 18.2665C12.3504 16.6569 10.2737 16.6569 9.34934 15.9142C7.46765 14.4001 7.65306 12.7362 6.66334 11.2551C11.0961 11.1319 11.8388 14.8809 14.7367 17.2014M14.1688 22.6462C13.0734 23.0489 12.6978 25.4708 14.1354 28.3699C15.5549 31.2354 17.5444 21.4052 14.1688 22.6462Z" fill="#FBBF67"/>
<path d="M31.1914 12.6699C30.3998 11.2414 28.4703 10.8982 26.8989 11.3561C24.6384 12.0154 24.5061 13.6241 26.5275 14.6919C27.0699 14.9798 25.3731 12.2529 27.5576 12.8851C28.8087 13.2463 28.1032 14.8087 27.8727 15.5626C27.5741 16.5438 26.9759 17.253 26.1944 17.7604C25.9671 17.8895 25.7338 18.0148 25.4969 18.1423C24.7446 18.485 23.8824 18.6911 22.9841 18.8021C20.8177 19.0641 18.7644 18.6746 16.8758 17.7221C16.0162 17.2902 15.1912 16.8886 14.2408 16.6458C13.173 16.3733 12.0749 16.2548 11.1686 15.6316C10.9438 15.2385 10.7382 14.8411 10.4259 14.5952C10.198 13.5024 11.0395 12.1769 10.4057 11.1043C9.90365 10.2581 8.12928 9.75018 7.13106 9.88618C6.00587 10.0365 5.44221 10.6299 5.60956 11.6823C5.72856 12.4271 6.24121 13.1433 6.53978 13.8387C6.9329 14.7508 6.84737 15.7081 6.64125 16.6447C6.603 16.6617 6.57378 16.683 6.56315 16.7085C5.29984 20.1138 6.61893 24.4695 10.6904 26.2386C18.707 29.7241 23.9286 26.0139 25.855 24.5391C26.3023 24.1959 28.1739 22.5241 28.5601 22.0226C30.9911 19.3079 32.8717 15.6927 31.1935 12.6694" fill="#EB6431"/>
<path d="M31.1913 12.67C31.1093 12.5224 31.0119 12.3838 30.9007 12.2567C31.3671 14.1076 26.1556 27.2167 13.8741 24.5711C7.31583 23.1553 8.83733 16.5917 5.95477 10.3809C5.64452 10.6842 5.51277 11.114 5.60414 11.6845C5.72314 12.4294 6.2358 13.1455 6.53436 13.8409C6.92749 14.753 6.84196 15.7104 6.63583 16.647C6.59758 16.664 6.56836 16.6852 6.55774 16.7107C5.29443 20.1165 6.61352 24.4723 10.685 26.2413C18.7016 29.7263 23.9232 26.0161 25.8496 24.5419C26.2969 24.1987 28.169 22.5268 28.5547 22.0248C30.9862 19.3112 32.8668 15.696 31.1886 12.6727" fill="#BF3049"/>
<path d="M9.34521 16.1143C7.4784 14.6098 5.39006 10.0166 3.60665 10.0166C2.38796 13.2583 8.65459 19.101 11.9568 18.4667C12.3494 16.8623 10.2707 16.857 9.34521 16.1143ZM14.2997 27.7848C13.1203 27.8528 11.9101 30.0415 12.249 33.2035C12.5848 36.3278 17.9392 27.5744 14.2997 27.7848Z" fill="#FBBF67"/>
<path d="M13.5609 31.4179C13.4737 31.453 13.2421 30.4219 13.156 30.0564C12.874 29.9857 12.5966 29.9081 12.3092 29.8486C12.1221 30.9753 12.084 32.1216 12.1961 33.2582C12.3953 35.3418 14.1606 33.246 15.2965 30.7433C15.1387 30.6753 14.9724 30.6306 14.812 30.5717C14.4406 30.917 14.0337 31.2187 13.5609 31.4179Z" fill="#EB6431"/>
<path d="M12.9448 23.2929C11.2623 22.2995 6.85295 23.8204 3.30792 27.9211C-0.195141 31.9751 18.1325 26.3614 12.9448 23.2929Z" fill="#FBBF67"/>
<path d="M6.71024 27.2848C6.47383 27.1833 6.85314 25.7569 7.16552 25.3935C7.01624 25.2007 6.87014 25.0062 6.71395 24.8145C5.36283 25.7376 4.13649 26.8313 3.06533 28.0684C1.13264 30.3044 5.26311 29.855 9.1152 28.4291C8.95808 28.1182 8.79172 27.8121 8.61636 27.5111C7.97089 27.5605 7.33233 27.5541 6.71024 27.2848Z" fill="#EB6431"/>
</g>
<defs>
<clipPath id="clip0_50_1306">
<rect width="34" height="34" fill="white"/>
</clipPath>
</defs>
</svg>
