<svg width="65" height="57" viewBox="0 0 65 57" fill="none" xmlns="http://www.w3.org/2000/svg">
<g clip-path="url(#clip0_50_1494)">
<path d="M50.0552 20.2172L47.4305 19.4096L44.7958 20.2168V21.422H50.0552V20.2172ZM44.2979 22.127H50.5528V23.7872H44.2979V22.127Z" fill="#EB6431"/>
<path d="M47.3267 20.0348C47.3267 8.52791 52.9492 8.03914 53.2914 0C55.0756 10.5974 49.6192 10.7224 48.81 15.9871C49.7541 13.3376 53.229 11.6209 53.5611 8.50511C53.5611 8.50511 54.1107 11.5867 52.1087 13.929C50.0238 16.3622 48.9036 17.3173 48.9968 19.9781L47.3371 20.0237L47.3267 20.0348Z" fill="#EB6431"/>
<path d="M47.5241 20.0348C47.5241 8.52791 41.9016 8.03914 41.5594 0C39.7751 10.5974 45.2316 10.7224 46.0408 15.9871C45.0967 13.3376 41.6218 11.6209 41.2896 8.50511C41.2896 8.50511 40.7401 11.5867 42.7421 13.929C44.8269 16.3622 45.9472 17.3173 45.8539 19.9781L47.5137 20.0237L47.5241 20.0348ZM49.36 3.10401C49.36 4.30956 48.4471 5.28746 47.3268 5.28746C46.2066 5.28746 45.2936 4.30956 45.2936 3.10401C45.2936 1.89846 46.2069 0.920906 47.3268 0.920906C48.4468 0.920906 49.36 1.89881 49.36 3.10401Z" fill="#EB6431"/>
<path d="M6.9646 23.7191L6.67437 20.7968H4.38182L4.12247 23.7191H0.813649L3.20987 3.69538H8.18887L10.5851 23.7191H6.95452H6.9646ZM4.71397 17.3173H6.33215L5.5229 8.59631L4.71365 17.3173H4.71397ZM15.0246 3.70678V20.1488H17.6597V23.7191H11.3735V3.69538H15.0246V3.70678ZM26.2381 3.70678L27.2859 14.3497L28.2297 3.70678H31.4664L29.2466 23.7305H25.2316L24.2676 14.6112L23.3543 23.7305H19.3399L17.1202 3.70678H20.8232L21.7674 14.4292L22.8148 3.70678H26.2585H26.2381ZM37.1506 23.7191L36.8604 20.7968H34.5678L34.3085 23.7191H30.9993L33.3955 3.69538H38.3745L40.7711 23.7191H37.1402H37.1506ZM34.8997 17.3173H36.5182L35.7089 8.59631L34.8997 17.3173ZM64.4633 16.4872V20.1712C64.4633 22.6614 63.343 23.8894 61.0713 23.8894H59.0381C56.7663 23.8894 55.646 22.6614 55.646 20.1712V15.9073H59.2249V19.7961C59.2249 20.2852 59.4323 20.5125 59.8782 20.5125H60.2207C60.6666 20.5125 60.874 20.2852 60.874 19.7965V17.3971C60.874 16.7715 60.6874 16.453 60.2516 16.1121L57.1189 13.5649C55.9987 12.6779 55.6564 11.8478 55.6564 10.4157V7.24256C55.6564 4.75237 56.7767 3.52438 59.0485 3.52438H61.0297C63.3014 3.52438 64.4217 4.75237 64.4217 7.24256V10.9048H60.8431V7.61876C60.8431 7.12963 60.6354 6.90234 60.1895 6.90234H59.899C59.4531 6.90234 59.2457 7.12963 59.2457 7.61841V9.50617C59.2457 10.1314 59.4323 10.4502 59.8678 10.7912L63.0008 13.3384C64.121 14.2251 64.4633 14.9978 64.4633 16.4872ZM9.22627 26.7209L10.2737 37.3639L11.2179 26.7209H14.4542L12.2345 46.7443H8.22007L7.25515 37.6253L6.34255 46.7443H2.32815L0.108398 26.7209H3.81145L4.75525 37.4433L5.80305 26.7209H9.24707H9.22627ZM18.9669 46.7443H15.3148V26.7209H18.9669V46.7443ZM25.6677 46.7443L23.344 35.8516L23.396 40.9456L23.448 46.756H20.2945V26.7319H24.0287L26.1448 36.6585L26.0928 30.8822L26.0619 26.7319H29.2154V46.7553H25.6677V46.7439V46.7443ZM35.8955 46.7443L33.5717 35.8516L33.6237 40.9456L33.6757 46.756H30.5222V26.7319H34.2565L36.3729 36.6585L36.3209 30.8822L36.2897 26.7319H39.4431V46.7553H35.8955V46.7439V46.7443ZM44.4222 46.7443H40.7711V26.7209H44.4225L44.4222 46.7443ZM51.1337 46.7443L48.81 35.8516L48.862 40.9456L48.914 46.756H45.7605V26.7319H49.4948L51.6108 36.6585L51.5588 30.8822L51.528 26.7319H54.6814V46.7553H51.1337V46.7439V46.7443ZM60.3452 38.7849V35.4419H65.0648V43.1967C65.0648 45.6869 63.9446 46.9149 61.6728 46.9149H59.3286C57.0569 46.9149 55.9366 45.6869 55.9366 43.1967V30.2684C55.9366 27.7782 57.0569 26.5502 59.3286 26.5502H61.6208C63.8926 26.5502 65.0128 27.7782 65.0128 30.2684V34.1002H61.4135V30.7006C61.4135 30.2118 61.2061 29.9845 60.7602 29.9845H60.2412C59.7953 29.9845 59.588 30.2118 59.588 30.7006V42.7646C59.588 43.2537 59.7953 43.481 60.2412 43.481H60.8431C61.289 43.481 61.4964 43.2537 61.4964 42.765V38.7849H60.3452ZM28.5098 53.5668V56.8415H27.7113V52.6459H28.5098C28.8108 52.6459 28.9453 52.8162 29.0597 52.9754L30.688 55.1243L32.3169 52.9754C32.4413 52.8162 32.5658 52.6459 32.8665 52.6459H33.6653V56.8415H32.8665V53.5668L31.0097 55.9772H30.377L28.5202 53.5668H28.5098ZM39.9306 54.7378C39.9306 56.3637 39.0489 56.8985 37.1818 56.8985C35.3147 56.8985 34.4329 56.3641 34.4329 54.7378C34.4329 53.1115 35.3147 52.5775 37.1818 52.5775C39.0489 52.5775 39.9306 53.1119 39.9306 54.7378ZM39.0905 54.7378C39.0905 53.5668 38.4577 53.4076 37.1818 53.4076C35.9058 53.4076 35.2731 53.5668 35.2731 54.7378C35.2731 55.9088 35.9058 56.0684 37.1818 56.0684C38.4577 56.0684 39.0905 55.9092 39.0905 54.7378ZM44.8889 54.704C45.4283 54.8742 45.6568 55.2269 45.6568 55.7157C45.6568 56.2045 45.2106 56.8529 44.1319 56.8529H40.7087V52.657H44.0594C45.4699 52.657 45.5632 53.4532 45.5632 53.7713C45.5632 54.2946 45.2935 54.5786 44.8892 54.7154V54.704H44.8889ZM44.1007 54.3171C44.5466 54.3171 44.754 54.1692 44.754 53.8739C44.754 53.5786 44.5674 53.419 44.1527 53.419H41.4868V54.3171H44.1007ZM41.4972 55.0677V56.057H44.2148C44.6919 56.057 44.8476 55.8183 44.8476 55.5907C44.8476 55.363 44.6919 55.0677 44.1527 55.0677H41.4868H41.4972ZM47.2646 52.6459V56.8415H46.445V52.6459H47.2646ZM48.2396 52.6459H51.4552C52.8559 52.6459 53.3327 53.362 53.3327 54.7492C53.3327 56.1364 52.8556 56.8529 51.4552 56.8529H48.2396V52.6459ZM51.4552 53.4984H49.0589V55.9886H51.4552C52.3889 55.9886 52.503 55.5565 52.503 54.7492C52.503 53.9419 52.3889 53.4984 51.4552 53.4984ZM55.843 53.4756C55.0756 53.4756 54.8472 53.7941 54.7955 54.3513H58.8824V55.1357H54.7955C54.8576 55.6929 55.0857 56 55.843 56H58.9448V56.8415H55.843C54.4429 56.8415 53.9554 56.1254 53.9554 54.7378C53.9554 53.3502 54.4429 52.6345 55.843 52.6345H58.9448V53.4646H55.843V53.4756ZM65.0648 56.8415H64.1831L63.6852 55.8069H60.8015L60.3036 56.8415H59.4323L61.0297 53.4642C61.2786 52.9412 61.5692 52.5775 62.2435 52.5775C62.9179 52.5775 63.2081 52.9412 63.4571 53.4646L65.0648 56.8415ZM62.6478 53.6463C62.565 53.4646 62.4509 53.362 62.2432 53.362C62.0355 53.362 61.9218 53.476 61.8389 53.6463L61.1749 55.0221H63.3118L62.6586 53.6463H62.6478Z" fill="#151515" stroke="#151515" stroke-width="0.375"/>
<path d="M47.8455 50.8379C47.8455 51.4404 47.3892 51.9409 46.8185 51.9409C46.2478 51.9409 45.7915 51.4518 45.7915 50.8379C45.7915 50.2241 46.2481 49.735 46.8185 49.735C47.3889 49.735 47.8455 50.2238 47.8455 50.8379Z" fill="#EB6431"/>
<path d="M19.724 53.3506H21.1449C21.2586 53.3506 21.321 53.3053 21.321 53.2259V53.1689C21.321 53.0891 21.2589 53.0439 21.1449 53.0439H19.7236V52.6798H21.1449C21.5596 52.6798 21.7672 52.839 21.7672 53.1689V53.2259C21.7672 53.3506 21.736 53.4532 21.674 53.5326C21.736 53.6121 21.7672 53.7143 21.7672 53.8397V53.8967C21.7672 54.2262 21.5596 54.3855 21.1449 54.3855H19.7236V53.3392L19.724 53.3506ZM21.1449 53.7147H20.1799V54.0218H21.1449C21.2586 54.0218 21.321 53.9762 21.321 53.8964V53.8394C21.321 53.7599 21.2589 53.7147 21.1449 53.7147ZM22.96 53.5896L22.0474 52.6798H22.6178L23.1885 53.2483L23.7588 52.6798H24.3292L23.4166 53.5896V54.3855H22.96V53.5896Z" fill="#151515" stroke="#151515" stroke-width="0.375"/>
</g>
<defs>
<clipPath id="clip0_50_1494">
<rect width="65" height="57" fill="white"/>
</clipPath>
</defs>
</svg>
