<svg width="256" height="204" viewBox="0 0 256 204" fill="none" xmlns="http://www.w3.org/2000/svg">
<g clip-path="url(#clip0_39_12)">
<path d="M197 73L187 70L176 73V77H197V73ZM174 80H199V86H174V80Z" fill="#151515"/>
<path d="M186 72C186 30.6472 209.614 28.8906 211 0C218.225 38.0843 195.277 38.0801 192 57C195.823 47.4786 210.655 42.1973 212 31C212 31 213.107 41.5822 205 50C196.558 58.7443 192.622 62.4376 193 72H186Z" fill="#151515"/>
<path d="M188 72C188 30.6472 164.368 28.8906 163 0C155.865 38.0843 178.764 38.0801 182 57C178.225 47.4786 163.328 42.1973 162 31C162 31 159.995 41.5822 168 50C176.337 58.7443 181.373 62.4376 181 72H188ZM195 11C195 15.3324 191.48 19 187 19C182.52 19 179 15.3324 179 11C179 6.66756 182.522 3 187 3C191.478 3 195 6.66884 195 11Z" fill="#151515"/>
<path d="M27 86L26 75H17L16 86H3L12 14H32L41 86H27ZM18 63H25L21 31L18 63ZM59 14V73H69V86H44V14H59ZM103 14L107 52L111 14H124L115 86H99L95 53L92 86H76L67 14H82L85 52L89 14H103ZM146 86L145 75H136L135 86H122L131 14H151L160 86H146ZM137 63H143L140 31L137 63ZM254 60V73C254 81.9578 248.953 86 240 86H232C223.047 86 219 81.9578 219 73V58H233V72C233 73.7595 234.243 74 236 74H237C238.757 74 239 73.7582 239 72V63C239 60.7496 238.718 59.2264 237 58L225 49C220.585 45.809 219 43.1517 219 38V26C219 17.0422 223.047 13 232 13H240C248.953 13 253 17.0422 253 26V40H239V28C239 26.2405 238.757 25 237 25H236C234.243 25 233 26.2418 233 28V35C233 37.2491 234.284 37.7736 236 39L248 48C252.415 51.1897 254 54.642 254 60ZM36 96L40 135L44 96H57L48 168H32L28 136L25 168H9L0 96H15L18 135L22 96H36ZM74 168H60V96H74V168ZM101 168L92 129V148V169H80V96H94L103 132L102 111V96H115V169H101V168ZM141 168L132 129V148V169H120V96H135L143 132V111V96H155V169H141V168ZM175 168H160V96H175V168ZM201 168L192 129V148V169H180V96H195L203 132V111V96H215V169H201V168ZM237 140V128H256V156C256 164.958 251.953 169 243 169H233C224.047 169 220 164.958 220 156V109C220 100.042 224.047 96 233 96H242C250.953 96 256 100.042 256 109V123H242V111C242 109.242 240.757 108 239 108H237C235.243 108 234 109.242 234 111V154C234 155.76 235.243 157 237 157H239C240.757 157 242 155.758 242 154V140H237ZM112 193V205H109V190H112C113.186 190 113.549 190.427 114 191L121 199L127 191C127.491 190.427 127.815 190 129 190H132V205H129V193L122 202H119L112 193ZM157 197C157 202.849 153.359 205 146 205C138.641 205 135 202.85 135 197C135 191.15 138.641 189 146 189C153.359 189 157 191.151 157 197ZM154 197C154 192.788 151.029 192 146 192C140.971 192 139 192.788 139 197C139 201.212 140.971 202 146 202C151.029 202 154 201.214 154 197ZM176 197C178.126 197.613 180 199.242 180 201C180 202.758 178.251 205 174 205H160V190H173C178.559 190 179 192.856 179 194C179 195.883 177.593 196.508 176 197ZM173 196C174.757 196 176 195.062 176 194C176 192.938 175.634 192 174 192H163V196H173ZM163 198V202H174C175.88 202 176 200.819 176 200C176 199.181 176.125 198 174 198H163ZM186 190V205H183V190H186ZM190 190H202C207.52 190 210 192.01 210 197C210 201.99 207.519 205 202 205H190V190ZM202 193H193V202H202C205.68 202 206 199.904 206 197C206 194.096 205.68 193 202 193ZM220 193C216.976 193 216.204 193.996 216 196H232V199H216C216.245 201.004 217.016 202 220 202H232V205H220C214.482 205 212 201.992 212 197C212 192.008 214.482 190 220 190H232V193H220ZM256 205H253L251 201H239L237 205H234L240 193C240.981 191.119 242.342 189 245 189C247.658 189 249.019 191.117 250 193L256 205ZM246 193C245.673 192.346 245.818 192 245 192C244.182 192 243.327 192.387 243 193L241 198H249L247 193H246Z" fill="#F7F5E5"/>
<path d="M188 183C188 185.185 186.223 187 184 187C181.777 187 180 185.226 180 183C180 180.774 181.778 179 184 179C186.222 179 188 180.773 188 183Z" fill="#151515"/>
<path d="M77 192H83C83 192.279 83.4446 192 83 192C83 191.719 83.4458 191 83 191H77V190H83C84.6208 190 85 190.84 85 192C85 192.439 85.2426 192.721 85 193C85.2426 193.279 85 193.559 85 194C85 195.159 84.6208 196 83 196H77V192ZM83 194H79V195H83C83.4446 195 83 194.281 83 194C83.4458 194 83 193.721 83 194ZM90 193L86 190H88L91 192L93 190H95L91 193V196H90V193Z" fill="#F7F5E5"/>
</g>
<defs>
<clipPath id="clip0_39_12">
<rect width="256" height="204" fill="white"/>
</clipPath>
</defs>
</svg>
