<svg width="75" height="60" viewBox="0 0 75 60" fill="none" xmlns="http://www.w3.org/2000/svg">
<g clip-path="url(#clip0_39_321)">
<path d="M57.7559 21.2812L54.7274 20.4311L51.6873 21.2809V22.5495H57.7559V21.2812ZM51.1128 23.2916H58.33V25.0391H51.1128V23.2916Z" fill="#EB6431"/>
<path d="M54.6079 21.0892C54.6079 8.97675 61.0954 8.46225 61.4903 0C63.549 11.1551 57.2532 11.2867 56.3194 16.8285C57.4088 14.0396 61.4183 12.2325 61.8015 8.95275C61.8015 8.95275 62.4357 12.1965 60.1257 14.6621C57.72 17.2234 56.4274 18.2287 56.535 21.0296L54.6199 21.0776L54.6079 21.0892Z" fill="#EB6431"/>
<path d="M54.8354 21.0892C54.8354 8.97675 48.3479 8.46225 47.9531 0C45.8943 11.1551 52.1902 11.2867 53.1239 16.8285C52.0346 14.0396 48.0251 12.2325 47.6418 8.95275C47.6418 8.95275 47.0077 12.1965 49.3177 14.6621C51.7233 17.2234 53.0159 18.2287 52.9083 21.0296L54.8234 21.0776L54.8354 21.0892ZM56.9538 3.26737C56.9538 4.53637 55.9004 5.56575 54.6078 5.56575C53.3152 5.56575 52.2618 4.53637 52.2618 3.26737C52.2618 1.99837 53.3156 0.969375 54.6078 0.969375C55.9001 0.969375 56.9538 1.99875 56.9538 3.26737Z" fill="#EB6431"/>
<path d="M8.03624 24.9675L7.70137 21.8914H5.05612L4.75687 24.9675H0.938994L3.70387 3.88988H9.44887L12.2137 24.9675H8.02462H8.03624ZM5.43937 18.2288H7.30649L6.37274 9.04875L5.43937 18.2288ZM17.3362 3.90188V21.2092H20.3767V24.9675H13.1235V3.88988H17.3362V3.90188ZM30.2749 3.90188L31.4839 15.105L32.5729 3.90188H36.3075L33.7462 24.9795H29.1135L28.0012 15.3802L26.9475 24.9795H22.3155L19.7542 3.90188H24.027L25.1164 15.1886L26.325 3.90188H30.2985H30.2749ZM42.8662 24.9675L42.5314 21.8914H39.8861L39.5869 24.9675H35.7686L38.5335 3.88988H44.2785L47.0437 24.9675H42.8542H42.8662ZM40.269 18.2288H42.1365L41.2027 9.04875L40.269 18.2288ZM74.3809 17.355V21.2329C74.3809 23.8541 73.0883 25.1467 70.467 25.1467H68.121C65.4998 25.1467 64.2071 23.8541 64.2071 21.2329V16.7445H68.3366V20.838C68.3366 21.3529 68.5759 21.5921 69.0904 21.5921H69.4856C70.0001 21.5921 70.2394 21.3529 70.2394 20.8384V18.3128C70.2394 17.6543 70.0241 17.319 69.5212 16.9601L65.9066 14.2789C64.614 13.3451 64.2191 12.4714 64.2191 10.9639V7.62375C64.2191 5.0025 65.5117 3.70988 68.133 3.70988H70.419C73.0403 3.70988 74.3329 5.0025 74.3329 7.62375V11.4788H70.2038V8.01975C70.2038 7.50488 69.9641 7.26563 69.4496 7.26563H69.1144C68.5999 7.26563 68.3606 7.50488 68.3606 8.01938V10.0065C68.3606 10.6646 68.5759 11.0003 69.0784 11.3591L72.6934 14.0404C73.986 14.9738 74.3809 15.7871 74.3809 17.355ZM10.6459 28.1272L11.8545 39.3304L12.9439 28.1272H16.6781L14.1169 49.2045H9.48487L8.37149 39.6056L7.3185 49.2045H2.68649L0.125244 28.1272H4.39799L5.48699 39.414L6.696 28.1272H10.6699H10.6459ZM21.885 49.2045H17.6711V28.1272H21.885V49.2045ZM29.6167 49.2045L26.9355 37.7385L26.9955 43.1006L27.0555 49.2169H23.4169V28.1389H27.7256L30.1672 38.5879L30.1072 32.5076L30.0716 28.1389H33.7102V49.2161H29.6167V49.2045ZM41.418 49.2045L38.7367 37.7385L38.7967 43.1006L38.8567 49.2169H35.2181V28.1389H39.5269L41.9689 38.5879L41.9089 32.5076L41.8729 28.1389H45.5115V49.2161H41.418V49.2045ZM51.2565 49.2045H47.0437V28.1272H51.2569L51.2565 49.2045ZM59.0006 49.2045L56.3194 37.7385L56.3794 43.1006L56.4394 49.2169H52.8008V28.1389H57.1095L59.5511 38.5879L59.4911 32.5076L59.4555 28.1389H63.0941V49.2161H59.0006V49.2045ZM69.6292 40.8263V37.3072H75.075V45.4703C75.075 48.0915 73.7824 49.3841 71.1611 49.3841H68.4563C65.835 49.3841 64.5424 48.0915 64.5424 45.4703V31.8615C64.5424 29.2402 65.835 27.9476 68.4563 27.9476H71.1011C73.7224 27.9476 75.015 29.2402 75.015 31.8615V35.895H70.8619V32.3164C70.8619 31.8019 70.6226 31.5626 70.1081 31.5626H69.5092C68.9947 31.5626 68.7555 31.8019 68.7555 32.3164V45.0154C68.7555 45.5302 68.9947 45.7695 69.5092 45.7695H70.2038C70.7183 45.7695 70.9575 45.5303 70.9575 45.0158V40.8263H69.6292ZM32.8961 56.3861V59.8331H31.9747V55.4167H32.8961C33.2434 55.4167 33.3986 55.596 33.5306 55.7636L35.4094 58.0256L37.2889 55.7636C37.4325 55.596 37.5761 55.4167 37.923 55.4167H38.8447V59.8331H37.923V56.3861L35.7806 58.9234H35.0505L32.9081 56.3861H32.8961ZM46.074 57.6187C46.074 59.3302 45.0566 59.8931 42.9022 59.8931C40.7479 59.8931 39.7305 59.3306 39.7305 57.6187C39.7305 55.9069 40.7479 55.3447 42.9022 55.3447C45.0566 55.3447 46.074 55.9072 46.074 57.6187ZM45.1046 57.6187C45.1046 56.3861 44.3745 56.2185 42.9022 56.2185C41.43 56.2185 40.6999 56.3861 40.6999 57.6187C40.6999 58.8514 41.43 59.0194 42.9022 59.0194C44.3745 59.0194 45.1046 58.8517 45.1046 57.6187ZM51.795 57.5831C52.4175 57.7624 52.6811 58.1336 52.6811 58.6481C52.6811 59.1626 52.1662 59.8451 50.9216 59.8451H46.9717V55.4284H50.838C52.4655 55.4284 52.5731 56.2665 52.5731 56.6014C52.5731 57.1522 52.2619 57.4511 51.7954 57.5951L51.795 57.5831ZM50.8856 57.1759C51.4001 57.1759 51.6394 57.0203 51.6394 56.7094C51.6394 56.3985 51.4241 56.2305 50.9456 56.2305H47.8695V57.1759H50.8856ZM47.8815 57.966V59.0074H51.0173C51.5677 59.0074 51.7474 58.7561 51.7474 58.5165C51.7474 58.2769 51.5677 57.966 50.9456 57.966H47.8695H47.8815ZM54.5362 55.4167V59.8331H53.5905V55.4167H54.5362ZM55.6612 55.4167H59.3715C60.9878 55.4167 61.5379 56.1705 61.5379 57.6308C61.5379 59.091 60.9874 59.8451 59.3715 59.8451H55.6612V55.4167ZM59.3715 56.3141H56.6066V58.9354H59.3715C60.4489 58.9354 60.5805 58.4805 60.5805 57.6308C60.5805 56.781 60.4489 56.3141 59.3715 56.3141ZM64.4344 56.2901C63.549 56.2901 63.2854 56.6254 63.2257 57.2119H67.9414V58.0376H63.2257C63.2974 58.6241 63.5606 58.9474 64.4344 58.9474H68.0134V59.8331H64.4344C62.8189 59.8331 62.2564 59.0794 62.2564 57.6187C62.2564 56.1581 62.8189 55.4047 64.4344 55.4047H68.0134V56.2785H64.4344V56.2901ZM75.075 59.8331H74.0576L73.4831 58.7441H70.1557L69.5813 59.8331H68.5759L70.419 56.2781C70.7062 55.7276 71.0415 55.3447 71.8196 55.3447C72.5977 55.3447 72.9326 55.7276 73.2199 56.2785L75.075 59.8331ZM72.2861 56.4697C72.1905 56.2785 72.0589 56.1705 71.8193 56.1705C71.5796 56.1705 71.4484 56.2905 71.3528 56.4697L70.5866 57.918H73.0523L72.2985 56.4697H72.2861Z" fill="#F7F5E5" stroke="#F7F5E5" stroke-width="0.375"/>
<path d="M55.2064 53.5136C55.2064 54.1478 54.6799 54.6746 54.0214 54.6746C53.3629 54.6746 52.8364 54.1598 52.8364 53.5136C52.8364 52.8675 53.3633 52.3526 54.0214 52.3526C54.6796 52.3526 55.2064 52.8671 55.2064 53.5136Z" fill="#EB6431" stroke="#F7F5E5" stroke-width="0.375"/>
<path d="M22.7587 56.1585H24.3982C24.5294 56.1585 24.6014 56.1109 24.6014 56.0273V55.9673C24.6014 55.8833 24.5298 55.8356 24.3982 55.8356H22.7583V55.4524H24.3982C24.8767 55.4524 25.1163 55.62 25.1163 55.9673V56.0273C25.1163 56.1585 25.0803 56.2665 25.0087 56.3501C25.0803 56.4338 25.1163 56.5414 25.1163 56.6734V56.7334C25.1163 57.0803 24.8767 57.2479 24.3982 57.2479H22.7583V56.1465L22.7587 56.1585ZM24.3982 56.5418H23.2848V56.865H24.3982C24.5294 56.865 24.6014 56.817 24.6014 56.733V56.673C24.6014 56.5894 24.5298 56.5418 24.3982 56.5418ZM26.4926 56.4101L25.4395 55.4524H26.0977L26.7562 56.0509L27.4143 55.4524H28.0724L27.0194 56.4101V57.2479H26.4926V56.4101Z" fill="#F7F5E5" stroke="#F7F5E5" stroke-width="0.375"/>
</g>
<defs>
<clipPath id="clip0_39_321">
<rect width="75" height="60" fill="white"/>
</clipPath>
</defs>
</svg>
