<svg width="34" height="34" viewBox="0 0 34 34" fill="none" xmlns="http://www.w3.org/2000/svg">
<g clip-path="url(#clip0_50_1291)">
<path d="M17 0.944336C7.61128 0.944336 0 6.86411 0 14.1666C0 18.2919 2.431 21.9752 6.23711 24.3996C5.74222 26.5803 4.58906 29.8151 1.88889 33.0554C7.327 32.1488 10.8035 29.5034 12.954 26.9959C14.2536 27.2433 15.6032 27.3888 17 27.3888C26.3887 27.3888 34 21.469 34 14.1666C34 6.86411 26.3887 0.944336 17 0.944336Z" fill="#EB6431"/>
<path d="M17.0002 16.0551C18.0434 16.0551 18.8891 15.2094 18.8891 14.1662C18.8891 13.123 18.0434 12.2773 17.0002 12.2773C15.957 12.2773 15.1113 13.123 15.1113 14.1662C15.1113 15.2094 15.957 16.0551 17.0002 16.0551Z" fill="#C9F2F8"/>
<path d="M24.5554 16.0551C25.5986 16.0551 26.4443 15.2094 26.4443 14.1662C26.4443 13.123 25.5986 12.2773 24.5554 12.2773C23.5122 12.2773 22.6665 13.123 22.6665 14.1662C22.6665 15.2094 23.5122 16.0551 24.5554 16.0551Z" fill="#C9F2F8"/>
<path d="M9.44455 16.0551C10.4878 16.0551 11.3334 15.2094 11.3334 14.1662C11.3334 13.123 10.4878 12.2773 9.44455 12.2773C8.40135 12.2773 7.55566 13.123 7.55566 14.1662C7.55566 15.2094 8.40135 16.0551 9.44455 16.0551Z" fill="#C9F2F8"/>
</g>
<defs>
<clipPath id="clip0_50_1291">
<rect width="34" height="34" fill="white"/>
</clipPath>
</defs>
</svg>
